<mxfile host="app.diagrams.net" modified="2020-12-07T04:25:02.766Z" agent="5.0 (Windows NT 10.0; Win64; x64) AppleWebKit/537.36 (KHTML, like Gecko) Chrome/87.0.4280.67 Safari/537.36" etag="nKsG18Se6_wl6mvzEYfT" version="13.10.9" type="github">
  <diagram id="M_wLOJvUojDNWaqsC0Z3" name="Page-1">
    <mxGraphModel dx="2146" dy="1827" grid="1" gridSize="10" guides="1" tooltips="1" connect="1" arrows="1" fold="1" page="1" pageScale="1" pageWidth="850" pageHeight="1100" math="0" shadow="0">
      <root>
        <mxCell id="0" />
        <mxCell id="1" parent="0" />
        <mxCell id="xQLviszKzZItlRmYp9uU-29" style="edgeStyle=orthogonalEdgeStyle;rounded=0;orthogonalLoop=1;jettySize=auto;html=1;exitX=0.5;exitY=1;exitDx=0;exitDy=0;" edge="1" parent="1" source="xQLviszKzZItlRmYp9uU-1">
          <mxGeometry relative="1" as="geometry">
            <mxPoint x="269.8823529411766" y="340.0588235294117" as="targetPoint" />
          </mxGeometry>
        </mxCell>
        <mxCell id="xQLviszKzZItlRmYp9uU-1" value="Pool/Vault manager&lt;br&gt;-Keep list of official pools&lt;br&gt;&lt;br&gt;-Make official pools checkable&amp;nbsp;&lt;br&gt;though view method&lt;br&gt;&lt;br&gt;IsOfficial(address pool)&lt;br&gt;addpool() onlyDeveloper" style="ellipse;whiteSpace=wrap;html=1;" vertex="1" parent="1">
          <mxGeometry x="160" y="200" width="220" height="140" as="geometry" />
        </mxCell>
        <mxCell id="xQLviszKzZItlRmYp9uU-3" value="&lt;span&gt;Strategies&lt;br&gt;IStaking?&lt;/span&gt;&lt;br&gt;&lt;span&gt;stake()&lt;/span&gt;&lt;br&gt;&lt;span&gt;unstake()&lt;/span&gt;" style="rounded=0;whiteSpace=wrap;html=1;" vertex="1" parent="1">
          <mxGeometry x="870" y="120" width="120" height="60" as="geometry" />
        </mxCell>
        <mxCell id="xQLviszKzZItlRmYp9uU-4" value="pool 1" style="ellipse;whiteSpace=wrap;html=1;" vertex="1" parent="1">
          <mxGeometry x="610" y="221" width="120" height="80" as="geometry" />
        </mxCell>
        <mxCell id="xQLviszKzZItlRmYp9uU-5" value="pool 2... ect." style="ellipse;whiteSpace=wrap;html=1;" vertex="1" parent="1">
          <mxGeometry x="610" y="340" width="120" height="80" as="geometry" />
        </mxCell>
        <mxCell id="xQLviszKzZItlRmYp9uU-7" value="" style="endArrow=classic;html=1;entryX=0;entryY=0.5;entryDx=0;entryDy=0;" edge="1" parent="1" target="xQLviszKzZItlRmYp9uU-4">
          <mxGeometry width="50" height="50" relative="1" as="geometry">
            <mxPoint x="380" y="270" as="sourcePoint" />
            <mxPoint x="430" y="220" as="targetPoint" />
          </mxGeometry>
        </mxCell>
        <mxCell id="xQLviszKzZItlRmYp9uU-8" value="" style="endArrow=classic;html=1;entryX=-0.008;entryY=0.363;entryDx=0;entryDy=0;entryPerimeter=0;" edge="1" parent="1" target="xQLviszKzZItlRmYp9uU-5">
          <mxGeometry width="50" height="50" relative="1" as="geometry">
            <mxPoint x="380" y="270" as="sourcePoint" />
            <mxPoint x="450" y="270" as="targetPoint" />
          </mxGeometry>
        </mxCell>
        <mxCell id="xQLviszKzZItlRmYp9uU-9" value="Strategy Controler&lt;br&gt;Holds strategy change&amp;nbsp;&lt;br&gt;for 24 hours before&lt;br&gt;deployment&lt;br&gt;Timelock" style="ellipse;whiteSpace=wrap;html=1;" vertex="1" parent="1">
          <mxGeometry x="680" y="-150" width="150" height="130" as="geometry" />
        </mxCell>
        <mxCell id="xQLviszKzZItlRmYp9uU-10" value="Pools/Vaults&lt;br&gt;Have pool interface&lt;br&gt;IStaking?" style="rounded=0;whiteSpace=wrap;html=1;" vertex="1" parent="1">
          <mxGeometry x="610" y="130" width="120" height="60" as="geometry" />
        </mxCell>
        <mxCell id="xQLviszKzZItlRmYp9uU-11" value="Strategy" style="ellipse;whiteSpace=wrap;html=1;" vertex="1" parent="1">
          <mxGeometry x="870" y="220" width="120" height="80" as="geometry" />
        </mxCell>
        <mxCell id="xQLviszKzZItlRmYp9uU-12" value="Strategy" style="ellipse;whiteSpace=wrap;html=1;" vertex="1" parent="1">
          <mxGeometry x="870" y="320" width="120" height="80" as="geometry" />
        </mxCell>
        <mxCell id="xQLviszKzZItlRmYp9uU-13" value="" style="endArrow=classic;html=1;entryX=0.5;entryY=0;entryDx=0;entryDy=0;exitX=0.576;exitY=1.023;exitDx=0;exitDy=0;exitPerimeter=0;" edge="1" parent="1" source="xQLviszKzZItlRmYp9uU-9" target="xQLviszKzZItlRmYp9uU-11">
          <mxGeometry width="50" height="50" relative="1" as="geometry">
            <mxPoint x="1134.4201521361838" y="179.92352712980482" as="sourcePoint" />
            <mxPoint x="990.8799999999997" y="244.79999999999995" as="targetPoint" />
          </mxGeometry>
        </mxCell>
        <mxCell id="xQLviszKzZItlRmYp9uU-15" value="deploys" style="edgeLabel;html=1;align=center;verticalAlign=middle;resizable=0;points=[];" vertex="1" connectable="0" parent="xQLviszKzZItlRmYp9uU-13">
          <mxGeometry x="-0.2698" y="-1" relative="1" as="geometry">
            <mxPoint x="-55.06" y="80.27" as="offset" />
          </mxGeometry>
        </mxCell>
        <mxCell id="xQLviszKzZItlRmYp9uU-16" value="deploys" style="endArrow=classic;html=1;exitX=0.197;exitY=0.93;exitDx=0;exitDy=0;exitPerimeter=0;entryX=0.43;entryY=-0.058;entryDx=0;entryDy=0;entryPerimeter=0;" edge="1" parent="1" source="xQLviszKzZItlRmYp9uU-9" target="xQLviszKzZItlRmYp9uU-12">
          <mxGeometry width="50" height="50" relative="1" as="geometry">
            <mxPoint x="690" y="380" as="sourcePoint" />
            <mxPoint x="740" y="330" as="targetPoint" />
          </mxGeometry>
        </mxCell>
        <mxCell id="xQLviszKzZItlRmYp9uU-17" value="" style="endArrow=classic;html=1;exitX=1;exitY=0.5;exitDx=0;exitDy=0;entryX=0;entryY=0.5;entryDx=0;entryDy=0;" edge="1" parent="1" source="xQLviszKzZItlRmYp9uU-4" target="xQLviszKzZItlRmYp9uU-11">
          <mxGeometry width="50" height="50" relative="1" as="geometry">
            <mxPoint x="690" y="360" as="sourcePoint" />
            <mxPoint x="740" y="310" as="targetPoint" />
          </mxGeometry>
        </mxCell>
        <mxCell id="xQLviszKzZItlRmYp9uU-18" value="" style="endArrow=classic;html=1;exitX=1;exitY=0.5;exitDx=0;exitDy=0;entryX=0;entryY=0.5;entryDx=0;entryDy=0;" edge="1" parent="1" source="xQLviszKzZItlRmYp9uU-5" target="xQLviszKzZItlRmYp9uU-12">
          <mxGeometry width="50" height="50" relative="1" as="geometry">
            <mxPoint x="690" y="360" as="sourcePoint" />
            <mxPoint x="740" y="310" as="targetPoint" />
          </mxGeometry>
        </mxCell>
        <mxCell id="xQLviszKzZItlRmYp9uU-19" value="" style="endArrow=classic;html=1;entryX=1;entryY=0.5;entryDx=0;entryDy=0;" edge="1" parent="1" target="xQLviszKzZItlRmYp9uU-4">
          <mxGeometry width="50" height="50" relative="1" as="geometry">
            <mxPoint x="790" y="110" as="sourcePoint" />
            <mxPoint x="740" y="80" as="targetPoint" />
          </mxGeometry>
        </mxCell>
        <mxCell id="xQLviszKzZItlRmYp9uU-20" value="Give Pools New strategy&lt;br&gt;address. Verify change is&lt;br&gt;done by official strategy&amp;nbsp;&lt;br&gt;controler in pool method call. &lt;br&gt;(require msg.sender == strategy controller" style="endArrow=classic;html=1;entryX=1;entryY=0.5;entryDx=0;entryDy=0;" edge="1" parent="1" target="xQLviszKzZItlRmYp9uU-5">
          <mxGeometry x="-1" y="133" width="50" height="50" relative="1" as="geometry">
            <mxPoint x="840" y="90" as="sourcePoint" />
            <mxPoint x="740" y="80" as="targetPoint" />
            <mxPoint x="6" y="-77" as="offset" />
          </mxGeometry>
        </mxCell>
        <mxCell id="xQLviszKzZItlRmYp9uU-21" value="Pools need to know who the official strategy&lt;br&gt;controller contract is, have reference to it" style="endArrow=classic;html=1;exitX=0;exitY=0;exitDx=0;exitDy=0;entryX=-0.013;entryY=0.593;entryDx=0;entryDy=0;entryPerimeter=0;" edge="1" parent="1" source="xQLviszKzZItlRmYp9uU-4" target="xQLviszKzZItlRmYp9uU-9">
          <mxGeometry width="50" height="50" relative="1" as="geometry">
            <mxPoint x="690" y="240" as="sourcePoint" />
            <mxPoint x="740" y="190" as="targetPoint" />
          </mxGeometry>
        </mxCell>
        <mxCell id="xQLviszKzZItlRmYp9uU-22" value="NO EVIL JARS HERE" style="endArrow=classic;html=1;exitX=0;exitY=0;exitDx=0;exitDy=0;entryX=0.035;entryY=0.711;entryDx=0;entryDy=0;entryPerimeter=0;" edge="1" parent="1" source="xQLviszKzZItlRmYp9uU-5" target="xQLviszKzZItlRmYp9uU-9">
          <mxGeometry x="0.1576" y="-25" width="50" height="50" relative="1" as="geometry">
            <mxPoint x="690" y="240" as="sourcePoint" />
            <mxPoint x="740" y="190" as="targetPoint" />
            <mxPoint x="-1" as="offset" />
          </mxGeometry>
        </mxCell>
        <mxCell id="xQLviszKzZItlRmYp9uU-23" value="Text" style="edgeLabel;html=1;align=center;verticalAlign=middle;resizable=0;points=[];" vertex="1" connectable="0" parent="xQLviszKzZItlRmYp9uU-22">
          <mxGeometry x="0.266" y="4" relative="1" as="geometry">
            <mxPoint as="offset" />
          </mxGeometry>
        </mxCell>
        <mxCell id="xQLviszKzZItlRmYp9uU-24" value="User/Front end App" style="rhombus;whiteSpace=wrap;html=1;" vertex="1" parent="1">
          <mxGeometry x="160" y="500" width="180" height="140" as="geometry" />
        </mxCell>
        <mxCell id="xQLviszKzZItlRmYp9uU-25" value="" style="endArrow=classic;html=1;exitX=0.5;exitY=0;exitDx=0;exitDy=0;" edge="1" parent="1" source="xQLviszKzZItlRmYp9uU-24">
          <mxGeometry width="50" height="50" relative="1" as="geometry">
            <mxPoint x="640" y="450" as="sourcePoint" />
            <mxPoint x="370" y="410" as="targetPoint" />
          </mxGeometry>
        </mxCell>
        <mxCell id="xQLviszKzZItlRmYp9uU-32" value="UpdateStrategy(Strategy newStrategy)&lt;br&gt;require(msg.sender == strategyController)&lt;br&gt;strategy=newstrategy" style="rounded=0;whiteSpace=wrap;html=1;" vertex="1" parent="1">
          <mxGeometry x="520" y="440" width="280" height="230" as="geometry" />
        </mxCell>
        <mxCell id="xQLviszKzZItlRmYp9uU-33" value="" style="ellipse;whiteSpace=wrap;html=1;" vertex="1" parent="1">
          <mxGeometry x="-425" y="240" width="120" height="80" as="geometry" />
        </mxCell>
        <mxCell id="xQLviszKzZItlRmYp9uU-34" value="nft/erc721 systems" style="rounded=0;whiteSpace=wrap;html=1;" vertex="1" parent="1">
          <mxGeometry x="-425" y="100" width="120" height="60" as="geometry" />
        </mxCell>
        <mxCell id="xQLviszKzZItlRmYp9uU-35" value="" style="endArrow=classic;html=1;exitX=1;exitY=0.5;exitDx=0;exitDy=0;entryX=-0.001;entryY=0.412;entryDx=0;entryDy=0;entryPerimeter=0;" edge="1" parent="1" source="xQLviszKzZItlRmYp9uU-34" target="xQLviszKzZItlRmYp9uU-1">
          <mxGeometry width="50" height="50" relative="1" as="geometry">
            <mxPoint x="160" y="370" as="sourcePoint" />
            <mxPoint x="210" y="320" as="targetPoint" />
          </mxGeometry>
        </mxCell>
        <mxCell id="xQLviszKzZItlRmYp9uU-36" value="get their info about investment behavior through the&lt;br&gt;pool/vault manager" style="edgeLabel;html=1;align=center;verticalAlign=middle;resizable=0;points=[];" vertex="1" connectable="0" parent="xQLviszKzZItlRmYp9uU-35">
          <mxGeometry x="-0.1007" y="-2" relative="1" as="geometry">
            <mxPoint as="offset" />
          </mxGeometry>
        </mxCell>
      </root>
    </mxGraphModel>
  </diagram>
</mxfile>
